<svg xmlns="http://www.w3.org/2000/svg" xmlns:xlink="http://www.w3.org/1999/xlink" viewBox="0 0 1500 500">
    <defs>
        <style>
            .cls-1{font-size:23px;font-family:AvantGardeITCbyBT-Book, AvantGarde Bk BT;}.cls-1,.cls-6{fill:#fff;}.cls-2{letter-spacing:-0.04em;}.cls-3{opacity:0.69;}.cls-4{opacity:0.76;}.cls-5{fill:#3fe0cd;}
        </style>
    </defs>
    <g id="Smartphone_Space_Grau" data-name="Smartphone Space Grau">
        <text class="cls-1" transform="translate(528.46 365.49)">
            A personalized platform for immigrants to <tspan x="0" y="27.6">hone their current skills and learn new skill</tspan><tspan x="419.9" y="27.6" class="cls-2">s</tspan><tspan x="428.03" y="27.6">. </tspan><tspan x="0" y="55.2" class="cls-2">W</tspan><tspan x="17.88" y="55.2">e upskill your life and career by matching </tspan><tspan x="0" y="82.8">systems and programs already in place </tspan><tspan x="0" y="110.4">that are ready to help!</tspan>
        </text>
        <g class="cls-3"/>
        <g class="cls-4">
            <path d="M484.07,520.37c-.58,0-1-1-1-2.46V320.46c0-1.47.38-2.46,1-2.46h18.24c.58,0,1,1,1,2.46v7.87c0,1.47-.38,2.46-1,2.46h-6.72q-.57,0-.57,1.47V506.12q0,1.47.57,1.47h6.72c.58,0,1,1,1,2.46v7.87c0,1.47-.38,2.46-1,2.46Z" class="cls-5"/>
        </g>
        <g class="cls-4">
            <path d="M1019.31,318c.58,0,1,1,1,2.46V517.92c0,1.47-.38,2.46-1,2.46h-18.24c-.58,0-1-1-1-2.46V510c0-1.47.38-2.46,1-2.46h6.72q.57,0,.57-1.47V332.26q0-1.47-.57-1.47h-6.72c-.58,0-1-1-1-2.46v-7.87c0-1.47.38-2.46,1-2.46Z" class="cls-5"/>
        </g>
        <path d="M511,208.11a.64.64,0,0,1-.64-.5l-5.85-21h-.1l-5.9,21a.64.64,0,0,1-.64.5h-5a.63.63,0,0,1-.59-.5l-8.72-32.71c0-.3,0-.5.4-.5h6.39a.56.56,0,0,1,.59.5l4.86,21.16h.1l5.75-21.16a.64.64,0,0,1,.64-.5h4.31a.63.63,0,0,1,.59.5l5.95,21.16h.1l4.66-21.16a.52.52,0,0,1,.59-.5h6.34c.35,0,.45.2.4.5l-8.67,32.71a.61.61,0,0,1-.64.5Z" class="cls-5"/>
        <path d="M529.09,174.91a.47.47,0,0,1,.5-.5H551.2a.47.47,0,0,1,.5.5v5.3a.47.47,0,0,1-.5.5H536.68a.26.26,0,0,0-.3.3v6.69a.26.26,0,0,0,.3.3h12.09a.47.47,0,0,1,.5.5v5.25a.47.47,0,0,1-.5.5H536.68a.26.26,0,0,0-.3.3v7a.26.26,0,0,0,.3.3H551.2a.47.47,0,0,1,.5.5v5.3a.47.47,0,0,1-.5.5H529.59a.47.47,0,0,1-.5-.5Z" class="cls-5"/>
        <path d="M557.1,174.91a.47.47,0,0,1,.5-.5h6.29a.47.47,0,0,1,.5.5v26.42a.26.26,0,0,0,.3.3h14.87a.47.47,0,0,1,.5.5v5.5a.47.47,0,0,1-.5.5h-22a.47.47,0,0,1-.5-.5Z" class="cls-5"/>
        <path d="M582.27,191.26c0-5.2.2-6.94.94-9.12,1.78-5.5,6.1-8.28,12-8.28,5.7,0,9.86,2.78,11.75,7.48a.38.38,0,0,1-.25.59l-5.4,2.43a.47.47,0,0,1-.69-.25c-.94-2.18-2.53-3.82-5.35-3.82A5,5,0,0,0,590.2,184c-.4,1.24-.55,2.43-.55,7.24s.15,6,.55,7.24a5,5,0,0,0,5.05,3.72c2.83,0,4.41-1.64,5.35-3.82a.47.47,0,0,1,.69-.25l5.4,2.43a.38.38,0,0,1,.25.59c-1.88,4.71-6,7.48-11.75,7.48-5.9,0-10.21-2.78-12-8.28C582.47,198.2,582.27,196.47,582.27,191.26Z" class="cls-5"/>
        <path d="M611.71,200.48c-.74-2.33-.94-4.21-.94-9.22s.2-6.89.94-9.22c1.73-5.45,6.39-8.18,12.29-8.18s10.56,2.73,12.29,8.18c.74,2.33.94,4.21.94,9.22s-.2,6.89-.94,9.22c-1.73,5.45-6.39,8.18-12.29,8.18S613.45,205.93,611.71,200.48Zm17.59-2c.4-1.19.55-2.83.55-7.24s-.15-6-.55-7.24a5.64,5.64,0,0,0-10.61,0c-.4,1.19-.55,2.83-.55,7.24s.15,6,.55,7.24a5.64,5.64,0,0,0,10.61,0Z" class="cls-5"/>
        <path d="M642.79,174.91a.47.47,0,0,1,.5-.5h5.9a.77.77,0,0,1,.79.5l8.52,19.23h.2l8.38-19.23a.77.77,0,0,1,.79-.5h5.8a.47.47,0,0,1,.5.5v32.71a.47.47,0,0,1-.5.5h-5.6a.47.47,0,0,1-.5-.5v-19h-.2l-6.25,14.22a1,1,0,0,1-.94.64h-3.42a1,1,0,0,1-.94-.64l-6.24-14.22h-.2v19a.47.47,0,0,1-.5.5h-5.6a.47.47,0,0,1-.5-.5Z" class="cls-5"/>
        <path d="M680.61,174.91a.47.47,0,0,1,.5-.5h21.61a.47.47,0,0,1,.5.5v5.3a.47.47,0,0,1-.5.5H688.19a.26.26,0,0,0-.3.3v6.69a.26.26,0,0,0,.3.3h12.09a.47.47,0,0,1,.5.5v5.25a.47.47,0,0,1-.5.5H688.19a.26.26,0,0,0-.3.3v7a.26.26,0,0,0,.3.3h14.52a.47.47,0,0,1,.5.5v5.3a.47.47,0,0,1-.5.5H681.1a.47.47,0,0,1-.5-.5Z" class="cls-5"/>
        <path d="M493.66,253.42a.47.47,0,0,1-.5-.5V226.51a.26.26,0,0,0-.3-.3h-8.52a.47.47,0,0,1-.5-.5v-5.5a.47.47,0,0,1,.5-.5h24.93a.47.47,0,0,1,.5.5v5.5a.47.47,0,0,1-.5.5h-8.52a.26.26,0,0,0-.3.3v26.42a.47.47,0,0,1-.5.5Z" class="cls-5"/>
        <path d="M513,245.79c-.74-2.33-.94-4.21-.94-9.22s.2-6.89.94-9.22c1.73-5.45,6.39-8.18,12.29-8.18s10.56,2.73,12.29,8.18c.74,2.33.94,4.21.94,9.22s-.2,6.89-.94,9.22c-1.73,5.45-6.39,8.18-12.29,8.18S514.72,251.24,513,245.79Zm17.59-2c.4-1.19.54-2.82.54-7.24s-.15-6-.54-7.24a5.64,5.64,0,0,0-10.61,0c-.4,1.19-.54,2.82-.54,7.24s.15,6,.54,7.24a5.64,5.64,0,0,0,10.61,0Z" class="cls-5"/>
        <path d="M564,274.24h-5.22V221.13H564Z" class="cls-6"/>
        <path d="M574.14,274.24V221.13h7.7l18.39,46.18,18.31-46.18h7.7v53.11h-5V227.33l-18.68,46.91h-4.71l-18.68-46.91v46.91Z" class="cls-6"/>
        <path d="M635.86,274.24V221.13h7.7l18.39,46.18,18.31-46.18H688v53.11h-5V227.33l-18.68,46.91h-4.71L640.9,227.33v46.91Z" class="cls-6"/>
        <path d="M696.71,221.13H708a47,47,0,0,1,7.77.51,14.59,14.59,0,0,1,4.85,1.64,14.74,14.74,0,0,1,5.38,5.49,15.37,15.37,0,0,1,1.88,7.61,16.44,16.44,0,0,1-1.7,7.42,13.65,13.65,0,0,1-4.72,5.42,14.47,14.47,0,0,1-5.05,2.06,36.27,36.27,0,0,1-7.5.64h-7v22.32h-5.22Zm5.22,5.22v20.25h7.7q6.42,0,9.48-2.44t3.06-7.55q0-5.33-3.08-7.79t-9.9-2.46Z" class="cls-6"/>
        <path d="M732.31,247.36a26.83,26.83,0,0,1,2.13-10.58,27.68,27.68,0,0,1,6.18-9,26.83,26.83,0,0,1,8.59-5.76,26.39,26.39,0,0,1,10.16-1.93,27.38,27.38,0,0,1,25.13,16.67,27.44,27.44,0,0,1,2,10.62,29.68,29.68,0,0,1-1.75,10.38,26.37,26.37,0,0,1-5.25,8.59,26.48,26.48,0,0,1-20.25,9,25.66,25.66,0,0,1-19.22-8A27.53,27.53,0,0,1,732.31,247.36Zm5.47.07a22.56,22.56,0,0,0,6.31,16.27,20.75,20.75,0,0,0,15.58,6.57A20.16,20.16,0,0,0,775,263.63a23,23,0,0,0,6.24-16.34,21.5,21.5,0,0,0-6.42-15.59,20.88,20.88,0,0,0-15.47-6.55,20.33,20.33,0,0,0-7.1,1.26,20.82,20.82,0,0,0-6.29,3.7,22.81,22.81,0,0,0-6,7.84A22.14,22.14,0,0,0,737.78,247.43Z" class="cls-6"/>
        <path d="M821.68,221.13l10.69,43.56,13.28-43.56h5.11L834.3,274.24H830l-10.65-43.34-10.69,43.34h-4.34l-16.52-53.11h5.18l13.21,43.56,10.76-43.56Z" class="cls-6"/>
        <path d="M859.8,244.95h22.32v5.25H859.8v18.9h22.32v5.14H854.55V221.13h27.58v5.22H859.8Z" class="cls-6"/>
        <path d="M896.46,226.35v47.9h-5.14V221.13h14.26a32.5,32.5,0,0,1,7.57.71,15.28,15.28,0,0,1,10.21,8.3,17.53,17.53,0,0,1,1.84,7.88,16.16,16.16,0,0,1-3.67,10.61,12.68,12.68,0,0,1-9.17,4.85l12.84,20.76H919l-15.76-25.61h5a11.5,11.5,0,0,0,8.19-3,9.93,9.93,0,0,0,3.16-7.59,13,13,0,0,0-1-5.11,11.22,11.22,0,0,0-2.86-4,9.08,9.08,0,0,0-3.78-2,34.45,34.45,0,0,0-7.86-.6Z" class="cls-6"/>
        <path d="M938.85,244.95h22.32v5.25H938.85v18.9h22.32v5.14H933.6V221.13h27.58v5.22H938.85Z" class="cls-6"/>
        <path d="M971.1,221.13h15.1a38,38,0,0,1,10.49,1.24,20.34,20.34,0,0,1,7.5,4,26.24,26.24,0,0,1,7.08,9.38,28.35,28.35,0,0,1,2.52,11.86A29.28,29.28,0,0,1,1011,260.4a24.41,24.41,0,0,1-7.84,9.43,22.24,22.24,0,0,1-7.26,3.39,51.68,51.68,0,0,1-12,1H971.1Zm5.14,5.07v43h10.83q10.14,0,15.61-5.69t5.47-16.12a24.55,24.55,0,0,0-1.86-9.63,19.76,19.76,0,0,0-5.33-7.4,15.55,15.55,0,0,0-5.8-3.23,34.32,34.32,0,0,0-9.34-1Z" class="cls-6"/>
    </g>
</svg>
